# Blender 4.4.1
# www.blender.org
mtllib deathParticle.mtl
o 立方体
v 0.501714 -0.704249 0.017760
v 0.804625 0.295751 0.028482
v -0.497660 -0.704249 -0.017616
v -0.798275 0.295751 -0.028257
v 0.002288 0.795611 0.000081
v 0.002094 -0.319923 0.000074
v -0.293706 -0.092382 -0.010397
v 0.168609 0.295751 0.009468
v -0.164330 0.295751 -0.005817
v 0.298216 -0.093111 0.010556
v -0.008795 0.012169 0.309327
v 0.479705 -0.638522 0.020480
v 0.168856 0.295751 0.002478
v 0.013099 0.012169 -0.309175
v 0.479952 -0.638522 0.013490
vn -0.7622 0.2470 0.5984
vn 0.7118 0.2492 0.6567
vn 0.4409 -0.6039 0.6640
vn 0.4400 -0.6036 0.6648
vn -0.4868 -0.6038 0.6312
vn -0.0239 0.7372 0.6752
vn -0.0203 0.7324 0.6806
vn -0.1551 -0.1702 0.9731
vn -0.4331 -0.6065 0.6667
vn -0.0900 -0.0712 0.9934
vn 0.7179 0.2507 0.6494
vn -0.7179 0.2470 -0.6508
vn 0.7564 0.2492 -0.6048
vn 0.4868 -0.6039 -0.6312
vn 0.4859 -0.6036 -0.6321
vn -0.4409 -0.6038 -0.6641
vn 0.0239 0.7372 -0.6752
vn 0.0278 0.7324 -0.6803
vn -0.0859 -0.1702 -0.9817
vn -0.3849 -0.6065 -0.6957
vn -0.3939 -0.6194 -0.6791
vn 0.7621 0.2507 -0.5970
vn -0.4409 -0.6194 0.6496
vn -0.0195 -0.0712 -0.9973
vt 0.541682 0.166659
vt 0.494414 0.125000
vt 0.625000 0.125000
vt 0.541682 0.083341
vt 0.439060 0.125000
vt 0.375000 0.250000
vt 0.625000 0.000000
vt 0.476866 0.050933
vt 0.625000 0.250000
vt 0.476987 0.199006
vt 0.385956 0.005478
vt 0.375000 0.000000
s 1
usemtl マテリアル
f 9/1/1 11/2/1 5/3/1
f 11/2/2 8/4/2 5/3/2
f 6/5/3 11/2/3 3/6/3
f 2/7/4 11/2/4 10/8/4
f 11/2/5 4/9/5 7/10/5
f 7/10/1 3/6/1 11/2/1
f 11/2/6 9/1/6 4/9/6
f 2/7/7 8/4/7 11/2/7
f 12/11/8 6/5/9 1/12/10
f 10/8/11 11/2/11 12/11/11
f 9/1/12 5/3/12 14/2/12
f 14/2/13 5/3/13 13/4/13
f 6/5/14 3/6/14 14/2/14
f 2/7/15 10/8/15 14/2/15
f 14/2/16 7/10/16 4/9/16
f 7/10/12 14/2/12 3/6/12
f 14/2/17 4/9/17 9/1/17
f 2/7/18 14/2/18 13/4/18
f 15/11/19 6/5/20 14/2/21
f 10/8/22 15/11/22 14/2/22
f 12/11/8 11/2/23 6/5/9
f 15/11/19 1/12/24 6/5/20
